<svg width="89" height="89" viewBox="0 0 89 89" xmlns="http://www.w3.org/2000/svg"><title>logo-credissimo</title><path d="M40.805 21.566c0 5.282 1.691 12.26 4.855 18.182l10.152-4.235c-1.689-3.382-2.745-8.451-2.745-11.834 0-8.24 4.023-13.109 11.41-13.109 7.407 0 11.421 4.869 11.421 13.109 0 3.383-1.058 8.452-2.754 11.834l10.15 4.235c3.162-5.922 4.854-12.899 4.854-18.182C88.148 7.611 78.215 0 64.478 0c-13.74 0-23.673 7.611-23.673 21.566m-16.49 24.939c4.857 0 10.14-1.271 15.007-3.592l-3.807-9.087c-2.742 1.266-6.13 2.111-9.511 2.111-8.239 0-12.683-4.229-12.683-12.678 0-8.247 4.862-12.482 13.102-12.482 3.807 0 6.768 1.063 8.878 2.116l3.812-9.722C36.15 1.484 31.08 0 25.794 0 11.201 0 0 8.036 0 23.26c0 15.848 9.092 23.245 24.315 23.245m39.535-4.837c-5.076 0-10.146 1.27-15.008 3.591l3.804 9.087c2.739-1.264 6.128-2.107 9.509-2.107 8.242 0 12.687 4.229 12.687 12.68 0 8.247-4.866 12.477-13.104 12.477-3.812 0-6.773-1.062-8.877-2.114l-3.807 9.089c2.967 2.114 8.038 3.799 13.309 3.799 14.594 0 25.787-8.027 25.787-23.25-.002-15.857-9.085-23.252-24.3-23.252M47.354 66.614c0-5.283-1.693-12.269-4.857-18.183L32.344 52.66c1.691 3.381 2.754 8.458 2.754 11.84 0 8.244-4.018 13.104-11.419 13.104-7.394 0-11.417-4.859-11.417-13.104 0-3.382 1.061-8.459 2.75-11.84L4.871 48.432C1.697 54.346 0 61.331 0 66.614c0 13.942 9.938 21.554 23.679 21.554 13.741 0 23.675-7.611 23.675-21.554" fill="#FFF"/></svg>