<svg width="46" height="61" viewBox="0 0 46 61" xmlns="http://www.w3.org/2000/svg"><title>logo-spell</title><path d="M45.901 13.525c0 2.9-.535 5.707-1.591 8.359a1.362 1.362 0 0 1-1.852.726l-7.899-3.744a1.369 1.369 0 0 1-.697-1.692c.4-1.164.601-2.387.601-3.649v-2.087H12.231a.625.625 0 0 0-.624.626v1.461c0 1.682.388 3.28 1.068 4.79 1.385 3.073 5.442 5.666 10.188 6.466 9.442 1.594 17.518 5.719 20.705 13.014 1.343 3.075 2.166 6.291 2.166 9.68v12.612a.911.911 0 0 1-.911.913H.909A.91.91 0 0 1 0 60.091V47.475c0-2.898.535-5.704 1.591-8.356a1.363 1.363 0 0 1 1.85-.73l7.901 3.74c.634.302.928 1.032.7 1.695a11.202 11.202 0 0 0-.604 3.651v2.087H33.67c.346 0 .626-.28.626-.626v-1.461c0-1.682-.341-3.303-1.07-4.793-1.79-3.666-5.675-5.69-10.188-6.463-10.35-1.778-16.975-5.11-20.703-13.017A22.424 22.424 0 0 1 .17 13.525V.911A.91.91 0 0 1 1.08 0h43.912a.91.91 0 0 1 .909.909v12.616z" fill="#FFF" fill-rule="evenodd"/></svg>