<svg width="101" height="115" viewBox="0 0 101 115" xmlns="http://www.w3.org/2000/svg"><title>logo-aspaway</title><path d="M44.523 85c-4.697.008-8.576-3.884-8.522-8.549.053-4.62 3.88-8.432 8.483-8.45 4.648-.02 8.556 3.915 8.516 8.576-.04 4.633-3.846 8.415-8.477 8.423M68 61.643c-.032 4.64-3.838 8.372-8.523 8.357-4.708-.015-8.563-3.934-8.476-8.616.087-4.636 3.942-8.41 8.566-8.384 4.716.026 8.466 3.87 8.433 8.643M25.416 44c-4.65-.023-8.425-3.855-8.416-8.545A8.46 8.46 0 0 1 25.485 27 8.49 8.49 0 0 1 34 35.439c.045 4.708-3.842 8.584-8.584 8.56M49.531 31c4.754.012 8.496 3.76 8.469 8.48-.027 4.833-3.796 8.555-8.627 8.52-4.72-.034-8.398-3.809-8.373-8.593.025-4.746 3.752-8.42 8.531-8.407M74 65.958c.003-3.325 2.63-5.946 5.974-5.958a5.98 5.98 0 0 1 6.025 6.092c-.052 3.276-2.801 5.95-6.076 5.908-3.296-.042-5.926-2.725-5.923-6.042M57 23.97c.014-3.324 2.686-5.992 5.977-5.97 3.269.022 5.988 2.732 6.023 6.003.035 3.33-2.729 6.033-6.134 5.997-3.356-.036-5.88-2.631-5.866-6.03m-37-5.849c-.04 3.336-2.726 5.935-6.07 5.878-3.334-.057-5.96-2.743-5.93-6.06.032-3.342 2.678-5.948 6.029-5.939 3.443.01 6.012 2.644 5.97 6.121M52.044 90c3.339.013 5.969 2.645 5.956 5.96-.013 3.311-2.674 6.013-5.946 6.04-3.318.027-6.108-2.789-6.053-6.107.055-3.327 2.699-5.906 6.043-5.893m21.004-77c-2.241.033-4.015-1.686-4.048-3.924C68.967 6.802 70.66 5.03 72.894 5c2.237-.03 4.064 1.71 4.105 3.914.041 2.186-1.763 4.053-3.95 4.086m23.999 59c-2.241.033-4.015-1.686-4.048-3.924-.033-2.274 1.659-4.045 3.894-4.076 2.237-.03 4.064 1.71 4.105 3.914.041 2.186-1.763 4.053-3.95 4.086M4.048 8C1.807 8.033.033 6.314 0 4.076-.033 1.802 1.66.03 3.894 0 6.13-.03 7.958 1.71 7.999 3.914 8.04 6.1 6.236 7.967 4.05 8M65 111.085c-.043 2.269-1.789 3.945-4.079 3.915-2.285-.031-3.944-1.744-3.92-4.049a3.953 3.953 0 0 1 4.053-3.95 4.016 4.016 0 0 1 3.945 4.084" fill="#FFF" fill-rule="evenodd"/></svg>