<svg width="88" height="60" viewBox="0 0 88 60" xmlns="http://www.w3.org/2000/svg"><title>logo copy</title><g fill="#FFF" fill-rule="evenodd"><path d="M80.667 33.917a3.667 3.667 0 1 0 7.333 0 3.667 3.667 0 0 0-7.333 0zM35.291 30.25c-1.772 0-3.208 1.387-3.208 3.098v23.137c0 1.711 1.436 3.098 3.208 3.098 1.772 0 3.209-1.387 3.209-3.098V33.348c0-1.71-1.437-3.098-3.209-3.098m48.229-4.622c1.711-.27 2.879-1.864 2.607-3.561C84.08 9.28 72.724 0 59.121 0 45.77 0 34.163 9.484 32.124 22.06c-.275 1.697.888 3.293 2.6 3.567a3.132 3.132 0 0 0 3.595-2.578C39.873 13.456 48.818 6.222 59.12 6.222c10.328 0 19.275 7.231 20.809 16.82.271 1.698 1.891 2.855 3.59 2.586m-67.705 5.423c-.547 0-1.061.044-1.56.104l-.194.026c-5.314.735-7.752 4.594-7.752 4.594v-2.426c0-1.712-1.413-3.099-3.154-3.099C1.41 30.25 0 31.637 0 33.349v23.137c0 1.71 1.616 3.097 3.357 3.097 1.743 0 3.359-1.387 3.359-3.097l-.007-.146h.007V43.543l.002.005c.233-3.447 2.836-6.81 7.452-6.81 4.942 0 6.105 4.037 6.105 7.278v12.47c0 1.71 1.412 3.097 3.154 3.097s3.154-1.387 3.154-3.097V42.083c0-5.573-2.748-11.032-10.769-11.032"/><path d="M72.986 30.475H68.39v-6.676c0-1.69-1.393-3.074-3.096-3.074s-3.097 1.383-3.097 3.074v6.676h-11.97v-.926l-.093-.027c.074-.264.126-.539.126-.827 0-3.236.715-5.58 2.068-6.779 1.376-1.218 3.148-1.033 3.177-1.03 1.7.25 3.3-.922 3.553-2.62.253-1.696-.93-3.275-2.639-3.525-.462-.069-4.621-.576-8.131 2.431C45.442 19.61 44 23.486 44 28.695c0 .111.021.217.032.325v3.328l.035-.003c-.012.114-.035.223-.035.34V56.51c0 1.69 1.394 3.072 3.097 3.072s3.096-1.382 3.096-3.072V36.62h11.971S62.193 47.98 62.19 48c.075 2.913.561 6.473 2.961 9.021.132.129.255.266.395.387 2.026 1.734 4.326 2.016 5.607 2.016.508 0 .856-.045.963-.06 1.698-.249 2.908-1.822 2.656-3.508a3.066 3.066 0 0 0-3.496-2.607c-.04.004-.999.088-1.703-.547-.736-.662-1.153-2.061-1.198-3.948h.014V36.62h4.597c1.703 0 3.097-1.383 3.097-3.073s-1.394-3.072-3.097-3.072"/></g></svg>