<?xml version="1.0" encoding="UTF-8"?>
<svg width="46px" height="61px" viewBox="0 0 46 61" version="1.1" xmlns="http://www.w3.org/2000/svg" xmlns:xlink="http://www.w3.org/1999/xlink">
    <!-- Generator: Sketch 43.2 (39069) - http://www.bohemiancoding.com/sketch -->
    <title>logo-spell</title>
    <desc>Created with Sketch.</desc>
    <defs></defs>
    <g id="Page-1" stroke="none" stroke-width="1" fill="none" fill-rule="evenodd">
        <g id="home" transform="translate(-375.000000, -2707.000000)" fill="#FFFFFF">
            <g id="Group-5" transform="translate(166.000000, 2592.000000)">
                <g id="Group-4">
                    <path d="M254.901014,128.524998 C254.901014,131.424966 254.365711,134.231624 253.309838,136.883584 C253.020087,137.615329 252.170477,137.949279 251.458377,137.610418 L243.558973,133.865752 C242.925449,133.566178 242.633242,132.836889 242.861605,132.173899 C243.261855,131.009983 243.463207,129.787135 243.463207,128.524998 L243.463207,126.437807 L221.23094,126.437807 C220.887167,126.437807 220.607238,126.717736 220.607238,127.063964 L220.607238,128.524998 C220.607238,130.207028 220.99521,131.805571 221.675388,133.315715 C223.060301,136.387569 227.116818,138.980597 231.863336,139.781097 C241.304806,141.374728 249.381008,145.5 252.568271,152.795347 C253.91144,155.869656 254.734039,159.086386 254.734039,162.475002 L254.734039,175.086547 C254.734039,175.592384 254.326423,176 253.823042,176 L209.908542,176 C209.407616,176 209,175.592384 209,175.091458 L209,162.475002 C209,159.57749 209.535303,156.770832 210.591176,154.118871 C210.880927,153.387127 211.730537,153.053176 212.440182,153.389582 L220.342042,157.129337 C220.975566,157.431366 221.270228,158.160655 221.041865,158.823645 C220.641615,159.990017 220.437807,161.212865 220.437807,162.475002 L220.437807,164.562193 L242.670075,164.562193 C243.016303,164.562193 243.296232,164.282264 243.296232,163.936036 L243.296232,162.475002 C243.296232,160.792972 242.954915,159.172329 242.225626,157.681829 C240.435553,154.015739 236.550922,151.992392 232.037678,151.218903 C221.687666,149.441108 215.062676,146.108969 211.335198,138.202198 C209.89872,135.172088 209.169431,131.913614 209.169431,128.524998 L209.169431,115.910998 C209.169431,115.407616 209.577047,115 210.080428,115 L253.992472,115 C254.493398,115 254.901014,115.407616 254.901014,115.908542 L254.901014,128.524998 Z" id="logo-spell"></path>
                </g>
            </g>
        </g>
    </g>
</svg>