<?xml version="1.0" encoding="UTF-8"?>
<svg width="88px" height="60px" viewBox="0 0 88 60" version="1.1" xmlns="http://www.w3.org/2000/svg" xmlns:xlink="http://www.w3.org/1999/xlink">
    <!-- Generator: Sketch 43.2 (39069) - http://www.bohemiancoding.com/sketch -->
    <title>logo copy</title>
    <desc>Created with Sketch.</desc>
    <defs></defs>
    <g id="Page-1" stroke="none" stroke-width="1" fill="none" fill-rule="evenodd">
        <g id="home" transform="translate(-853.000000, -1086.000000)" fill="#FFFFFF">
            <g id="logo-copy" transform="translate(853.000000, 1086.000000)">
                <path d="M80.6666667,33.9166667 C80.6666667,35.9416546 82.3081873,37.5833333 84.3333333,37.5833333 C86.35834,37.5833333 88,35.9416546 88,33.9166667 C88,31.8915393 86.35834,30.25 84.3333333,30.25 C82.3081873,30.25 80.6666667,31.8915393 80.6666667,33.9166667 Z" id="Fill-1"></path>
                <path d="M35.2911541,30.25 C33.5189737,30.25 32.0833333,31.6371857 32.0833333,33.3477557 L32.0833333,56.4845874 C32.0833333,58.1960062 33.5189737,59.5833333 35.2911541,59.5833333 C37.0634809,59.5833333 38.5,58.1960062 38.5,56.4845874 L38.5,33.3477557 C38.5,31.6371857 37.0634809,30.25 35.2911541,30.25" id="Fill-2"></path>
                <path d="M83.5200694,25.6277358 C85.2310001,25.3584404 86.3989619,23.7640939 86.1274775,22.0665386 C84.0801208,9.28025847 72.723799,0 59.1212014,0 C45.7689116,0 34.1632703,9.4842956 32.1235372,22.060657 C31.8486645,23.7573721 33.012391,25.353399 34.7233216,25.6267555 C34.8916053,25.6539231 35.0589007,25.6666667 35.2254902,25.6666667 C36.7375017,25.6666667 38.0702177,24.5778618 38.3186902,23.0487737 C39.8734785,13.4559477 48.8177818,6.22208218 59.1212014,6.22208218 C69.4494682,6.22208218 78.3956069,13.453427 79.9297833,23.042752 C80.2012677,24.7404473 81.8209977,25.8968911 83.5200694,25.6277358" id="Fill-3"></path>
                <path d="M15.8141123,31.0513915 C15.266559,31.0513915 14.7528408,31.0949623 14.2546723,31.1548014 C14.1894497,31.1632892 14.1240831,31.1727673 14.0597243,31.1812551 C8.74559171,31.9160172 6.30758992,35.7750037 6.30758992,35.7750037 L6.30758992,33.3486194 C6.30758992,31.6371924 4.89515282,30.25 3.15372297,30.25 C1.41142925,30.25 0,31.6371924 0,33.3486194 L0,56.4855627 C0,58.1961409 1.61602386,59.5833333 3.35745371,59.5833333 C5.09989141,59.5833333 6.71591527,58.1961409 6.71591527,56.4855627 L6.70886028,56.3401381 L6.71591527,56.3401381 L6.71591527,43.5426304 L6.71764302,43.5478645 C6.95103349,40.1009616 9.55360364,36.7380881 14.1703005,36.7380881 C19.1116706,36.7380881 20.2748795,40.7750358 20.2748795,44.0156848 L20.2748795,56.4855627 C20.2748795,58.1961409 21.6873166,59.5833333 23.4287465,59.5833333 C25.1710402,59.5833333 26.5833333,58.1961409 26.5833333,56.4855627 L26.5833333,42.0827257 C26.5833333,36.5097658 23.8353441,31.0513915 15.8141123,31.0513915" id="Fill-4"></path>
                <path d="M72.9862907,30.4748119 L68.389457,30.4748119 L68.389457,23.7985609 C68.389457,22.1081443 66.9959991,20.7254193 65.2925552,20.7254193 C63.5899564,20.7254193 62.1964985,22.1081443 62.1964985,23.7985609 L62.1964985,30.4748119 L50.2253514,30.4748119 L50.2253514,29.5485217 L50.1325387,29.52224 C50.2066199,29.2577455 50.2585893,28.9830458 50.2585893,28.6947858 C50.2585893,25.4593407 50.9740498,23.1148173 52.3273687,21.9163438 C53.7029401,20.6984386 55.4753949,20.8826901 55.5035627,20.8852064 C57.2036264,21.135302 58.8048214,19.9639489 59.0570634,18.2658435 C59.3100097,16.5695554 58.1278098,14.990836 56.4183099,14.7406007 C55.9557957,14.6721005 51.7968294,14.1650594 48.286707,17.1722172 C45.4419064,19.6088664 44,23.4858366 44,28.6947858 C44,28.8063433 44.0212666,28.9120293 44.0323929,29.0202316 L44.0323929,32.3476627 L44.0673209,32.3451463 C44.0545046,32.4585211 44.0323929,32.568401 44.0323929,32.6841523 L44.0323929,56.5110305 C44.0323929,58.2006083 45.42571,59.5833333 47.1292947,59.5833333 C48.8318935,59.5833333 50.2253514,58.2006083 50.2253514,56.5110305 L50.2253514,36.6202564 L62.1964985,36.6202564 C62.1964985,36.6202564 62.1931184,47.9796828 62.1897382,48.0016308 C62.2646644,50.9141466 62.7509804,54.4741986 65.151294,57.0224053 C65.2832599,57.150878 65.4059304,57.2878784 65.5464874,57.4086624 C67.5718885,59.142975 69.8723475,59.4253635 71.1534161,59.4253635 C71.6609987,59.4253635 72.0094336,59.3804889 72.1159077,59.3652511 C73.8142813,59.1159944 75.0236631,57.5431464 74.7717027,55.8569237 C74.5211507,54.1723785 72.9931918,53.0001867 71.2760866,53.2502822 C71.2369335,53.2536373 70.276977,53.3382141 69.5726428,52.7025604 C68.8374648,52.0409046 68.4201598,50.6419632 68.3750915,48.7547134 L68.389457,48.7547134 L68.389457,36.6202564 L72.9862907,36.6202564 C74.6890304,36.6202564 76.0833333,35.2373916 76.0833333,33.5471148 C76.0833333,31.8575369 74.6890304,30.4748119 72.9862907,30.4748119" id="Fill-5"></path>
            </g>
        </g>
    </g>
</svg>