<?xml version="1.0" encoding="UTF-8"?>
<svg width="101px" height="115px" viewBox="0 0 101 115" version="1.1" xmlns="http://www.w3.org/2000/svg" xmlns:xlink="http://www.w3.org/1999/xlink">
    <!-- Generator: Sketch 43.2 (39069) - http://www.bohemiancoding.com/sketch -->
    <title>logo-aspaway</title>
    <desc>Created with Sketch.</desc>
    <defs></defs>
    <g id="Page-1" stroke="none" stroke-width="1" fill="none" fill-rule="evenodd">
        <g id="home" transform="translate(-348.000000, -1617.000000)" fill="#FFFFFF">
            <g id="Group-22" transform="translate(166.000000, 1529.000000)">
                <g id="logo-aspaway" transform="translate(182.000000, 88.000000)">
                    <path d="M44.5227634,84.9999881 C39.8262623,85.0078636 35.9467438,81.1163835 36.0005531,76.451464 C36.0540343,71.8318287 39.8807279,68.0194317 44.484047,68.0000711 C49.1323165,67.9807105 53.039724,71.915834 52.9996951,76.5771438 C52.9603225,81.2099051 49.1536434,84.9924407 44.5227634,84.9999881" id="Fill-1"></path>
                    <path d="M67.9997808,61.6428117 C67.9675347,66.2833697 64.1618303,70.0147424 59.4765957,69.9999562 C54.7693152,69.9848415 50.9142545,66.0658487 51.0014507,61.3838894 C51.0879888,56.7479316 54.9430495,52.9745004 59.5667533,53.0001298 C64.2829179,53.0264163 68.0330141,56.8695068 67.9997808,61.6428117" id="Fill-3"></path>
                    <path d="M25.4164676,43.9998943 C20.7657792,43.9771151 16.9914835,40.1449263 17.0000144,35.4550508 C17.0085454,30.7684767 20.7864504,27.0039653 25.4847153,27.0000037 C30.1728087,26.9957119 33.9543229,30.7433866 33.9996027,35.4388743 C34.0452105,40.1465769 30.1583717,44.0233337 25.4164676,43.9998943" id="Fill-5"></path>
                    <path d="M49.5309539,31.0000306 C54.284502,31.0122856 58.0265376,34.7593459 57.9998582,39.4801847 C57.9725201,44.3133061 54.2038049,48.0348627 49.3728537,47.9997536 C44.6532313,47.9656383 40.9750945,44.191087 41.000127,39.4069857 C41.0245008,34.6613056 44.7523734,30.9877755 49.5309539,31.0000306" id="Fill-7"></path>
                    <path d="M74.000003,65.958403 C74.0032504,62.6328059 76.6304083,60.012373 79.9739458,60.0000416 C83.351581,59.9877101 86.0534295,62.7197751 85.9991977,66.0921019 C85.9469143,69.3683731 83.1976536,72.0413769 79.9229614,71.9995149 C76.6274857,71.9576529 73.9967556,69.2745892 74.000003,65.958403" id="Fill-9"></path>
                    <path d="M57.0000632,23.9700324 C57.0143674,20.6461399 59.6856757,17.9780696 62.9766157,18.0001359 C66.2457743,18.0222022 68.9648717,20.7321334 68.9996569,24.0031318 C69.0354173,27.3338389 66.2714569,30.035982 62.8664084,29.9996376 C59.5104494,29.9639422 56.985434,27.3685608 57.0000632,23.9700324" id="Fill-11"></path>
                    <path d="M19.9994947,18.1213564 C19.9592277,21.4571088 17.2744376,24.0564848 13.929335,23.9990669 C10.5963452,23.9419734 7.9691728,21.2563083 8.00027329,17.9387221 C8.03170114,14.5971306 10.6775339,11.9906179 14.0285292,12.0000254 C17.4724985,12.0097572 20.0413985,14.6435191 19.9994947,18.1213564" id="Fill-13"></path>
                    <path d="M52.0437518,90.0000488 C55.3829667,90.0130321 58.0129476,92.6450594 57.999952,95.9606542 C57.9866316,99.2713804 55.3264359,101.973193 52.0538234,101.999808 C48.7360513,102.026748 45.9455749,99.2113329 46.0008061,95.893466 C46.0563622,92.565537 48.6999885,89.9870656 52.0437518,90.0000488" id="Fill-15"></path>
                    <path d="M73.0481619,12.9995189 C70.8067325,13.0330125 69.033088,11.3137834 69.0004819,9.07556634 C68.9672301,6.80157942 70.6585521,5.03097185 72.8935249,5.00040489 C75.1314032,4.96951274 76.9579923,6.71020371 76.9993149,8.91362647 C77.0403147,11.100465 75.2356783,12.9666757 73.0481619,12.9995189" id="Fill-17"></path>
                    <path d="M97.0481619,71.9995189 C94.8067325,72.0330125 93.033088,70.3137834 93.0004819,68.0755663 C92.9672301,65.8015794 94.6585521,64.0309718 96.8935249,64.0004049 C99.1314032,63.9695127 100.957992,65.7102037 100.999315,67.9136265 C101.040315,70.100465 99.2356783,71.9666757 97.0481619,71.9995189" id="Fill-19"></path>
                    <path d="M4.04816193,7.99951889 C1.80673249,8.03301247 0.0330880454,6.31378341 0.000481913515,4.07556634 C-0.0327698844,1.80157942 1.65855215,0.0309718479 3.89352493,0.000404885135 C6.13140321,-0.030487258 7.95799227,1.71020371 7.99931489,3.91362647 C8.04031468,6.10046503 6.23567827,7.96667566 4.04816193,7.99951889" id="Fill-21"></path>
                    <path d="M64.999305,111.084746 C64.9570524,113.353852 63.2110464,115.030156 60.9212824,114.999589 C58.6360687,114.969022 56.976843,113.256298 57.0002445,110.951422 C57.0233209,108.707029 58.8089792,106.966666 61.0538905,107.000485 C63.2662998,107.033978 65.0402574,108.870595 64.999305,111.084746" id="Fill-23"></path>
                </g>
            </g>
        </g>
    </g>
</svg>