<?xml version="1.0" encoding="UTF-8"?>
<svg width="89px" height="89px" viewBox="0 0 89 89" version="1.1" xmlns="http://www.w3.org/2000/svg" xmlns:xlink="http://www.w3.org/1999/xlink">
    <!-- Generator: Sketch 43.2 (39069) - http://www.bohemiancoding.com/sketch -->
    <title>logo-credissimo</title>
    <desc>Created with Sketch.</desc>
    <defs></defs>
    <g id="Page-1" stroke="none" stroke-width="1" fill="none" fill-rule="evenodd">
        <path d="M40.805,21.566 C40.805,26.848 42.496,33.826 45.66,39.748 L55.812,35.513 C54.123,32.131 53.067,27.062 53.067,23.679 C53.067,15.439 57.09,10.57 64.477,10.57 C71.884,10.57 75.898,15.439 75.898,23.679 C75.898,27.062 74.84,32.131 73.144,35.513 L83.294,39.748 C86.456,33.826 88.148,26.849 88.148,21.566 C88.148,7.611 78.215,0 64.478,0 C50.738,0 40.805,7.611 40.805,21.566 M24.315,46.505 C29.172,46.505 34.455,45.234 39.322,42.913 L35.515,33.826 C32.773,35.092 29.385,35.937 26.004,35.937 C17.765,35.937 13.321,31.708 13.321,23.259 C13.321,15.012 18.183,10.777 26.423,10.777 C30.23,10.777 33.191,11.84 35.301,12.893 L39.113,3.171 C36.15,1.484 31.08,0 25.794,0 C11.201,0 0,8.036 0,23.26 C0,39.108 9.092,46.505 24.315,46.505 M63.85,41.668 C58.774,41.668 53.704,42.938 48.842,45.259 L52.646,54.346 C55.385,53.082 58.774,52.239 62.155,52.239 C70.397,52.239 74.842,56.468 74.842,64.919 C74.842,73.166 69.976,77.396 61.738,77.396 C57.926,77.396 54.965,76.334 52.861,75.282 L49.054,84.371 C52.021,86.485 57.092,88.17 62.363,88.17 C76.957,88.17 88.15,80.143 88.15,64.92 C88.148,49.063 79.065,41.668 63.85,41.668 M47.354,66.614 C47.354,61.331 45.661,54.345 42.497,48.431 L32.344,52.66 C34.035,56.041 35.098,61.118 35.098,64.5 C35.098,72.744 31.08,77.604 23.679,77.604 C16.285,77.604 12.262,72.745 12.262,64.5 C12.262,61.118 13.323,56.041 15.012,52.66 L4.871,48.432 C1.697,54.346 0,61.331 0,66.614 C0,80.556 9.938,88.168 23.679,88.168 C37.42,88.168 47.354,80.557 47.354,66.614" id="logo-credissimo" fill="#FFFFFF" fill-rule="nonzero"></path>
    </g>
</svg>